PathFileType	4	(X/Y/Z)	Walk1.trc
DataRate	CameraRate	NumFrames	NumMarkers	Units	OrigDataRate	OrigDataStartFrame	OrigNumFrames
200.000000	200.000000	6	59	mm	200.000000	424	584
Frame#	Times		LFHD		RFHD		LBHD		RBHD		C7		T10		CLAV		STRN		RBack		LASI		RACR1		RUA1		RElbow		RFA1		RWRR		RWRU		RCAR		LACR1		LUA1		LElbow		LFA1		LWRU		LCAR		RTH1		RTH3		RTB1		RTB3		RTB4		LTH3		LTH2		LTH4		LLFC		LTB2		LTB4		LToe		RTH2		LMMAL		RTH4		LTH1		LTB1		RTB2		LCAL		LMT1		LTB3		LMT5		RElbowM		LWRR		LLMAL		RLFC		RPSI		LPSI		LElbowM		RASI		RMT1		RToe		RCAL		RMMAL		RLMAL		RMT5
			X1	Y1	Z1	X2	Y2	Z2	X3	Y3	Z3	X4	Y4	Z4	X5	Y5	Z5	X6	Y6	Z6	X7	Y7	Z7	X8	Y8	Z8	X9	Y9	Z9	X10	Y10	Z10	X11	Y11	Z11	X12	Y12	Z12	X13	Y13	Z13	X14	Y14	Z14	X15	Y15	Z15	X16	Y16	Z16	X17	Y17	Z17	X18	Y18	Z18	X19	Y19	Z19	X20	Y20	Z20	X21	Y21	Z21	X22	Y22	Z22	X23	Y23	Z23	X24	Y24	Z24	X25	Y25	Z25	X26	Y26	Z26	X27	Y27	Z27	X28	Y28	Z28	X29	Y29	Z29	X30	Y30	Z30	X31	Y31	Z31	X32	Y32	Z32	X33	Y33	Z33	X34	Y34	Z34	X35	Y35	Z35	X36	Y36	Z36	X37	Y37	Z37	X38	Y38	Z38	X39	Y39	Z39	X40	Y40	Z40	X41	Y41	Z41	X42	Y42	Z42	X43	Y43	Z43	X44	Y44	Z44	X45	Y45	Z45	X46	Y46	Z46	X47	Y47	Z47	X48	Y48	Z48	X49	Y49	Z49	X50	Y50	Z50	X51	Y51	Z51	X52	Y52	Z52	X53	Y53	Z53	X54	Y54	Z54	X55	Y55	Z55	X56	Y56	Z56	X57	Y57	Z57	X58	Y58	Z58	X59	Y59	Z59

424	2.12	77.283	1422.6	-18.201	66.74	1410.2	77.37	-50.67	1348.2	-51.185	-64.036	1339.6	80.871	-96.373	1259.3	15.773	-185.23	1061.8	26.024	44.443	1173	13.106	94.296	1065.2	11.864	-146.04	1136.7	133.53	-0.21346	802.12	-150.46	-27.478	1200.2	194.34	-30.963	1060.2	276.74	-41.653	935.46	313.39	31.687	826.52	323.73	65.267	732.6	287	26.577	726.35	347.89	81.972	678.96	340.99	-35.827	1204.5	-172.6	-16.437	1048.7	-251.48	-40.27	932.5	-284.12	52.432	863.86	-300.63	92.066	761.17	-318.72	148.89	738.68	-313.14	-15.77	626.47	225.29	25.322	465.77	171.21	106.59	303.59	91.606	132.27	134.93	74.442	116.52	217.16	83.004	-98.233	469.44	-156.39	-33.724	554.73	-157.98	-88.014	553.15	-180.73	-94.324	367.09	-124.03	-205.76	213.57	-107.37	-189.42	205.26	-47.907	-188.28	25.927	-25.935	56.371	565.01	183.24	-301.97	114.45	6.825	2.8456	544.49	202.61	-77.842	637.93	-196.73	-128.9	268.48	-55.7	85.768	208.45	135.56	-371.45	121.57	-28.955	-237.11	33.845	-2.6669	-242.24	141.16	-41.941	-278.99	31.302	-86.868	-87.77	898.32	241.25	123.87	780.12	-268.59	-327.95	108.55	-72.241	34.271	387.84	148.02	-224.28	839.18	93.062	-243.26	846.67	-12.487	-70.104	898.99	-220.86	42.139	806.17	165.1	213.93	48.369	36.681	263.05	62.109	69.296	50.311	26.467	67.88	108.62	72.725	28.758	103.71	60.595	111.58	196.97	30.317	124.72
425	2.125	82.938	1422.8	-17.316	72.549	1410.4	78.259	-44.932	1348.2	-50.148	-58.091	1339.5	81.916	-90.295	1259.3	17.068	-179.34	1062	27.249	50.356	1173	14.076	100.27	1065.2	12.917	-139.78	1136.7	134.81	5.5402	802.28	-149.55	-21.102	1199.9	195.46	-24.524	1059.8	277.63	-35.162	934.97	314	38.135	825.99	324.21	71.687	732.12	287.33	33.003	725.79	348.23	88.388	678.44	341.26	-30.302	1204.5	-171.53	-11.341	1048.5	-250.29	-35.328	932.37	-282.79	57.417	863.71	-299.05	97.043	760.96	-316.99	153.85	738.53	-311.41	-8.7649	627.18	225.09	32.316	466.55	170.9	110.91	302.96	91.448	134.39	134.02	74.089	119.74	216.44	82.772	-89.913	469.14	-156.87	-26.171	554.99	-157.9	-80.366	553.02	-180.84	-85.53	366.68	-125	-199.46	215.17	-108.26	-183.01	206.34	-48.926	-188.59	25.859	-25.806	63.124	565.96	182.32	-297.28	117.83	6.033	9.8622	545.31	202.2	-70.913	637.92	-196.53	-121.29	268.34	-56.842	89.208	208.09	135.51	-366.25	127.17	-29.591	-236.4	34.137	-2.7347	-237.1	143.34	-42.883	-277.7	33.086	-86.948	-81.256	897.92	241.85	128.82	780.04	-266.92	-323.61	112.63	-72.885	39.797	388.1	148.34	-218.22	839.01	93.862	-237.48	845.94	-11.785	-65.197	898.98	-219.43	48.6	805.87	165.1	214.75	45.533	36.072	264.58	58.206	68.41	50.644	27.18	67.846	109.73	72.062	28.51	104.8	60.33	111.44	197.49	28.475	124.75
426	2.13	88.615	1423	-16.421	78.369	1410.5	79.154	-39.171	1348.2	-49.119	-52.138	1339.5	82.952	-84.192	1259.5	18.347	-173.48	1062.2	28.443	56.272	1173	15.036	106.25	1065.3	14.001	-133.51	1136.7	136.08	11.289	802.5	-148.57	-14.692	1199.7	196.55	-18.019	1059.5	278.5	-28.619	934.55	314.61	44.622	825.52	324.67	78.134	731.69	287.63	39.464	725.3	348.54	94.836	677.96	341.5	-24.736	1204.6	-170.47	-6.2669	1048.4	-249.09	-30.457	932.29	-281.42	62.29	863.55	-297.47	101.85	760.72	-315.28	158.63	738.32	-309.7	-1.7284	628.01	224.92	39.433	467.45	170.71	115.19	302.35	91.37	136.38	133.14	73.799	122.87	215.75	82.609	-81.325	468.87	-157.37	-18.454	555.33	-157.81	-72.536	552.92	-180.97	-76.393	366.34	-126	-192.78	216.88	-109.19	-176.19	207.51	-49.993	-188.81	25.802	-25.734	69.929	567.05	181.44	-292.11	121.3	5.2149	16.954	546.25	201.87	-63.888	637.94	-196.35	-113.29	268.27	-58.044	92.574	207.77	135.53	-360.52	132.93	-30.206	-235.51	34.503	-2.8194	-231.54	145.63	-43.865	-276.14	35.064	-87.044	-74.695	897.58	242.43	133.64	779.91	-265.26	-318.82	116.87	-73.529	45.378	388.42	148.7	-212.2	838.91	94.598	-231.73	845.22	-11.14	-60.333	899.02	-217.95	55.012	805.74	165.15	215.42	42.939	35.532	265.91	54.633	67.588	50.909	27.848	67.83	110.71	71.476	28.303	105.76	60.103	111.33	197.89	26.877	124.88
427	2.135	94.315	1423.2	-15.519	84.2	1410.8	80.055	-33.391	1348.3	-48.102	-46.179	1339.5	83.975	-78.073	1259.7	19.605	-167.64	1062.4	29.602	62.187	1173.1	15.979	112.22	1065.4	15.11	-127.24	1136.8	137.32	17.031	802.76	-147.55	-8.2549	1199.6	197.62	-11.45	1059.2	279.34	-22.026	934.2	315.19	51.148	825.12	325.09	84.606	731.32	287.9	45.96	724.87	348.83	101.32	677.54	341.71	-19.131	1204.8	-169.43	-1.2115	1048.3	-247.88	-25.658	932.24	-280.03	67.052	863.38	-295.9	106.48	760.45	-313.57	163.24	738.06	-308.02	5.3058	628.95	224.78	46.621	468.45	170.64	119.42	301.76	91.381	138.27	132.29	73.57	125.91	215.09	82.518	-72.484	468.64	-157.89	-10.584	555.78	-157.71	-64.535	552.86	-181.12	-66.938	366.08	-127.01	-185.71	218.7	-110.14	-168.97	208.74	-51.102	-188.89	25.762	-25.738	76.752	568.26	180.62	-286.45	124.84	4.3748	24.078	547.29	201.63	-56.774	638	-196.17	-104.91	268.26	-59.296	95.851	207.48	135.62	-354.25	138.8	-30.796	-234.39	34.963	-2.9325	-225.54	148.02	-44.884	-274.29	37.237	-87.162	-68.088	897.31	242.99	138.32	779.74	-263.62	-313.57	121.22	-74.172	50.999	388.78	149.09	-206.23	838.88	95.266	-226.01	844.52	-10.557	-55.507	899.12	-216.41	61.372	805.77	165.26	215.97	40.609	35.055	267.05	51.42	66.828	51.122	28.46	67.831	111.57	70.969	28.135	106.61	59.913	111.24	198.18	25.523	125.08
428	2.14	100.04	1423.5	-14.613	90.042	1411	80.959	-27.594	1348.4	-47.1	-40.22	1339.5	84.982	-71.953	1259.9	20.836	-161.82	1062.7	30.722	68.095	1173.2	16.9	118.18	1065.5	16.237	-120.96	1137	138.54	22.763	803.08	-146.5	-1.7969	1199.5	198.65	-4.8198	1059	280.16	-15.385	933.92	315.76	57.712	824.78	325.49	91.103	731.02	288.14	52.493	724.51	349.09	107.83	677.19	341.88	-13.495	1205	-168.4	3.8269	1048.2	-246.66	-20.925	932.24	-278.6	71.705	863.21	-294.34	110.94	760.15	-311.88	167.67	737.73	-306.36	12.306	629.98	224.71	53.827	469.52	170.7	123.59	301.16	91.487	140.04	131.49	73.395	128.86	214.45	82.499	-63.411	468.47	-158.43	-2.5741	556.32	-157.6	-56.377	552.86	-181.28	-57.193	365.9	-128.02	-178.27	220.62	-111.12	-161.36	210.04	-52.241	-188.76	25.746	-25.843	83.561	569.55	179.9	-280.32	128.42	3.5175	31.192	548.42	201.5	-49.581	638.11	-196	-96.183	268.32	-60.585	99.023	207.19	135.77	-347.48	144.73	-31.357	-233	35.536	-3.0878	-219.13	150.48	-45.933	-272.09	39.602	-87.31	-61.439	897.1	243.53	142.87	779.52	-262.01	-307.85	125.67	-74.809	56.635	389.18	149.5	-200.32	838.94	95.862	-220.31	843.86	-10.037	-50.719	899.28	-214.82	67.681	805.98	165.43	216.4	38.554	34.636	268.01	48.576	66.125	51.291	29.01	67.845	112.31	70.538	28.002	107.34	59.755	111.17	198.4	24.405	125.32
429	2.145	105.78	1423.7	-13.704	95.894	1411.2	81.863	-21.785	1348.5	-46.114	-34.267	1339.6	85.972	-65.844	1260.2	22.036	-156.04	1063.1	31.802	73.991	1173.3	17.793	124.12	1065.7	17.372	-114.7	1137.2	139.73	28.482	803.43	-145.43	4.6744	1199.5	199.64	1.8673	1058.9	280.95	-8.6981	933.72	316.3	64.314	824.51	325.85	97.622	730.77	288.35	59.063	724.22	349.34	114.38	676.89	342.02	-7.8351	1205.3	-167.4	8.8501	1048.2	-245.43	-16.259	932.28	-277.16	76.254	863.03	-292.78	115.24	759.83	-310.2	171.93	737.35	-304.73	19.243	631.08	224.69	60.991	470.63	170.9	127.69	300.57	91.686	141.7	130.71	73.27	131.7	213.83	82.55	-54.128	468.36	-158.98	5.5586	556.96	-157.48	-48.079	552.92	-181.45	-47.192	365.83	-129.02	-170.47	222.62	-112.1	-153.38	211.41	-53.398	-188.36	25.761	-26.072	90.322	570.89	179.3	-273.73	132.01	2.6497	38.251	549.59	201.48	-42.316	638.27	-195.84	-87.139	268.46	-61.894	102.08	206.9	135.98	-340.22	150.66	-31.887	-231.26	36.244	-3.3014	-212.3	152.99	-47.003	-269.52	42.155	-87.493	-54.753	896.97	244.04	147.29	779.27	-260.42	-301.69	130.18	-75.439	62.254	389.59	149.93	-194.46	839.07	96.384	-214.63	843.22	-9.5823	-45.966	899.49	-213.19	73.939	806.35	165.67	216.72	36.773	34.266	268.83	46.099	65.474	51.426	29.495	67.874	112.95	70.18	27.902	107.98	59.624	111.11	198.54	23.506	125.59
